# xmcd
#
# Track frame offsets: 
#        150
#        16661
#        30487
#        45514
#        60740
#        76317
#        91590
#        105964
#        118123
#        130422
#        144002
#        154484
#        170160
#        183423
#        196344
#        206489
#        219804
#        236623
#        250101
#        262997
#        276077
#
# Disc length: 3913 seconds
#
# Revision: 0
# Processed by: cddbd v1.5.2PL0 Copyright (c) Steve Scherf et al.
# Submitted via: ExactAudioCopyFreeDBPlugin 1.0
#
DISCID=110f4715
DTITLE=Adam Aston - Bądź zawsze młody
DYEAR=2009
DGENRE=Oldies
TTITLE0=Graj skrzypku graj
TTITLE1=Mariuszka
TTITLE2=Kącik marzeń
TTITLE3=Nie raz,nie dwa,nie trzy
TTITLE4=Spójrz
TTITLE5=Połóż dłoń na dłoni
TTITLE6=Nie pytaj mnie o nic
TTITLE7=To chyba czary
TTITLE8=Nie chcę, ale muszę
TTITLE9=Skrwawione serce
TTITLE10=How Do You Do mr.Brown
TTITLE11=Nicpoń
TTITLE12=Szkoda
TTITLE13=W błękicie oczu twych
TTITLE14=Czy ty wiesz mała miss
TTITLE15=Grzech
TTITLE16=Ukradkiem przyjdź
TTITLE17=Dziękuje Ci
TTITLE18=Róża
TTITLE19=Zawsze będzie czegoś ci brak
TTITLE20=Czerwone maki na Monte Cassino
EXTD=
EXTT0=
EXTT1=
EXTT2=
EXTT3=
EXTT4=
EXTT5=
EXTT6=
EXTT7=
EXTT8=
EXTT9=
EXTT10=
EXTT11=
EXTT12=
EXTT13=
EXTT14=
EXTT15=
EXTT16=
EXTT17=
EXTT18=
EXTT19=
EXTT20=
PLAYORDER=
